<svg width="70" height="19" viewBox="0 0 70 19" fill="none" xmlns="http://www.w3.org/2000/svg">
<path d="M12.4525 9.08134C12.4644 9.08134 12.4703 9.09916 12.4703 9.13482C12.4703 9.19424 12.4377 9.30418 12.3723 9.46463C12.3069 9.61913 12.2118 9.80038 12.0871 10.0084C11.9623 10.2164 11.8078 10.4362 11.6235 10.668C11.4453 10.8997 11.2402 11.1196 11.0085 11.3276C10.8896 11.3573 10.7381 11.39 10.5539 11.4257C10.3697 11.4554 10.1587 11.4851 9.92101 11.5148C9.68925 11.5445 9.4367 11.5772 9.16334 11.6128C8.88999 11.6426 8.60475 11.6723 8.30762 11.702C7.95701 12.2546 7.61532 12.8043 7.28254 13.351C6.9557 13.8977 6.64669 14.4266 6.35551 14.9377C6.06433 15.4547 5.79394 15.9509 5.54436 16.4263C5.30071 16.9017 5.08976 17.3444 4.91148 17.7544C4.78075 17.8079 4.58761 17.8614 4.33209 17.9149C4.07656 17.9743 3.80915 18.0307 3.52985 18.0842C3.25649 18.1377 3.00096 18.1882 2.76326 18.2358C2.52556 18.2833 2.35917 18.3219 2.26409 18.3516C2.82269 17.1572 3.38426 16.0311 3.94879 14.9733C4.51927 13.9215 5.10164 12.9083 5.69589 11.9337C5.38688 11.9575 5.0957 11.9813 4.82234 12.005C4.54899 12.0229 4.30832 12.0377 4.10033 12.0496C3.89234 12.0615 3.72298 12.0734 3.59224 12.0853C3.46151 12.0912 3.38426 12.0942 3.36049 12.0942C3.32483 12.0942 3.307 12.0704 3.307 12.0229C3.307 11.9575 3.33672 11.8624 3.39614 11.7376C3.45557 11.6128 3.52391 11.4881 3.60116 11.3633C3.68435 11.2325 3.76755 11.1196 3.85074 11.0245C3.93988 10.9235 4.00822 10.8671 4.05576 10.8552C4.51927 10.8136 4.95605 10.769 5.36608 10.7215C5.78206 10.6739 6.17723 10.6234 6.55161 10.5699C7.52024 9.06648 8.51264 7.65513 9.52881 6.3359C10.545 5.01666 11.576 3.73011 12.6219 2.47624C12.6456 2.45247 12.6575 2.40196 12.6575 2.32471C12.6575 2.28905 12.6456 2.2534 12.6219 2.21774C12.6041 2.18209 12.5595 2.17614 12.4882 2.19991C11.2224 2.54458 10.0785 2.92787 9.05638 3.34979C8.03427 3.77171 7.12506 4.19957 6.32877 4.63337C5.53247 5.06123 4.84314 5.48018 4.26078 5.89021C3.68435 6.30024 3.20895 6.67165 2.83457 7.00443C2.4602 7.33127 2.18387 7.60165 2.0056 7.81558C1.82732 8.02951 1.73818 8.1543 1.73818 8.18996C1.73818 8.20779 1.74413 8.23453 1.75601 8.27018C1.77384 8.2999 1.82732 8.31475 1.91646 8.31475C2.10662 8.31475 2.30866 8.28801 2.52259 8.23453C2.74247 8.18105 2.95937 8.11271 3.1733 8.02951C3.39317 7.94632 3.60413 7.85718 3.80617 7.7621C4.00822 7.66108 4.19541 7.566 4.36774 7.47686C4.37368 7.61354 4.37963 7.77398 4.38557 7.9582C4.39745 8.13648 4.40637 8.31772 4.41231 8.50194C4.42419 8.68616 4.43311 8.86444 4.43905 9.03677C4.45094 9.20316 4.45688 9.33984 4.45688 9.4468C4.38557 9.48246 4.26969 9.52108 4.10924 9.56268C3.94879 9.59833 3.75269 9.63399 3.52093 9.66964C3.29512 9.69936 3.03662 9.7261 2.74544 9.74987C2.4602 9.7677 2.15416 9.77661 1.82732 9.77661C1.79167 9.77661 1.76195 9.77364 1.73818 9.7677C1.72036 9.76175 1.70253 9.75878 1.6847 9.75878C1.63122 9.75284 1.55099 9.7053 1.44403 9.61616C1.34301 9.52702 1.2301 9.41412 1.10531 9.27744C0.980513 9.14076 0.852749 8.9922 0.722014 8.83175C0.591279 8.66536 0.472429 8.50788 0.365464 8.35932C0.258499 8.20482 0.169361 8.06517 0.0980513 7.94038C0.0326838 7.80964 0 7.71456 0 7.65513C0 7.29264 0.133706 6.91826 0.401119 6.532C0.674474 6.1398 1.03994 5.75056 1.49751 5.3643C1.96103 4.97804 2.49585 4.59772 3.10199 4.22334C3.70812 3.84896 4.34694 3.49538 5.01845 3.1626C5.68995 2.82982 6.37334 2.52378 7.06861 2.24448C7.76388 1.95924 8.42944 1.7156 9.06529 1.51356C9.70114 1.31151 10.2865 1.15403 10.8213 1.04113C11.3621 0.922276 11.8078 0.862851 12.1584 0.862851C12.2594 0.862851 12.3753 0.901477 12.506 0.97873C12.6427 1.05598 12.7764 1.157 12.9071 1.2818C13.0438 1.40659 13.1775 1.54624 13.3082 1.70074C13.439 1.85525 13.5549 2.00975 13.6559 2.16426C13.7628 2.31876 13.849 2.46733 13.9144 2.60995C13.9797 2.74662 14.0154 2.85953 14.0213 2.94867C14.0213 2.98433 13.9589 3.10318 13.8342 3.30522C13.7153 3.50132 13.5489 3.76279 13.335 4.08963C13.1211 4.41053 12.8685 4.79085 12.5773 5.23059C12.2861 5.6644 11.9682 6.1398 11.6235 6.65679C11.2789 7.16785 10.9134 7.71159 10.5271 8.28801C10.1468 8.85849 9.76056 9.4468 9.36836 10.0529C9.90318 9.92814 10.3608 9.80929 10.7411 9.69639C11.1214 9.57754 11.4363 9.47354 11.6859 9.3844C11.9355 9.29527 12.1227 9.22396 12.2475 9.17047C12.3723 9.11105 12.4406 9.08134 12.4525 9.08134Z" fill="#111212"/>
<path d="M11.579 15.321C11.888 14.7921 12.2148 14.1919 12.5595 13.5204C12.9041 12.8429 13.2548 12.118 13.6113 11.3454C13.9679 10.567 14.3244 9.7469 14.681 8.88523C15.0375 8.02357 15.3822 7.14111 15.715 6.23785C16.0477 5.32864 16.3627 4.40458 16.6598 3.46567C16.9569 2.52675 17.2243 1.59378 17.462 0.666748C17.6344 0.833138 17.8127 0.999528 17.9969 1.16592C18.187 1.32637 18.3713 1.48681 18.5495 1.64726C18.7278 1.80177 18.8942 1.95627 19.0487 2.11078C19.2091 2.25934 19.3429 2.39899 19.4498 2.52972C19.2299 3.17151 18.9744 3.84896 18.6832 4.56206C18.3921 5.26922 18.083 5.99123 17.7562 6.7281C17.4294 7.45903 17.0906 8.18699 16.74 8.91197C16.3954 9.63696 16.0537 10.3322 15.715 10.9978C15.3822 11.6634 15.0642 12.2873 14.7612 12.8697C14.4581 13.4461 14.1877 13.9542 13.95 14.3939C14.3066 14.3939 14.7285 14.3969 15.2158 14.4029C15.7031 14.4029 16.232 14.4058 16.8024 14.4118C17.3729 14.4177 17.9731 14.4266 18.603 14.4385C19.2329 14.4504 19.8688 14.4652 20.5106 14.4831C20.4155 14.6138 20.3055 14.7564 20.1807 14.9109C20.056 15.0654 19.9222 15.2229 19.7796 15.3834C19.643 15.5498 19.5003 15.7102 19.3518 15.8647C19.2091 16.0252 19.0665 16.1737 18.9239 16.3104C18.3891 16.2807 17.8721 16.2421 17.3729 16.1945C16.8797 16.147 16.4013 16.0905 15.9378 16.0252C15.4743 15.9657 15.0197 15.9033 14.574 15.838C14.1342 15.7726 13.6975 15.7072 13.2637 15.6419C13.1983 15.7607 13.1448 15.8469 13.1032 15.9004C13.0676 15.9538 13.0527 15.9746 13.0587 15.9628L11.579 15.321Z" fill="#111212"/>
<path d="M22.846 13.8502C22.846 14.0285 22.9113 14.1176 23.0421 14.1176C23.1787 14.1176 23.36 14.0106 23.5858 13.7967C23.8116 13.5768 24.0463 13.3005 24.29 12.9677C24.2781 12.9024 24.2692 12.8459 24.2632 12.7984C24.2632 12.7449 24.2632 12.6974 24.2632 12.6558C24.2632 12.5369 24.2751 12.3973 24.2989 12.2368C24.3286 12.0704 24.397 11.8832 24.5039 11.6752C24.5752 11.5148 24.6614 11.3573 24.7624 11.2028C24.8456 11.0661 24.9466 10.9205 25.0655 10.766C25.1843 10.6056 25.3151 10.457 25.4577 10.3203L25.5112 10.2669C25.5706 10.3382 25.6478 10.4362 25.7429 10.561C25.844 10.6799 25.942 10.8047 26.0371 10.9354C26.1381 11.0602 26.2243 11.1761 26.2956 11.283C26.3728 11.39 26.4204 11.4643 26.4382 11.5059C26.4382 11.7614 26.3907 12.0169 26.2956 12.2725C26.2064 12.528 26.0846 12.7805 25.9301 13.0301C26.2867 13.0064 26.6165 12.9172 26.9195 12.7627C27.2286 12.6023 27.5494 12.3438 27.8822 11.9872C27.9357 12.0407 28.0041 12.115 28.0872 12.2101C28.1764 12.2992 28.2477 12.3765 28.3012 12.4418C28.0516 12.7033 27.805 12.9202 27.5613 13.0925C27.3236 13.2649 27.083 13.4015 26.8393 13.5026C26.6016 13.6036 26.358 13.6779 26.1084 13.7254C25.8588 13.767 25.6033 13.7878 25.3418 13.7878C25.1398 14.0017 24.9229 14.1978 24.6911 14.3761C24.4594 14.5544 24.2216 14.7089 23.978 14.8396C23.7403 14.9704 23.5026 15.0714 23.2649 15.1427C23.0272 15.214 22.8014 15.2497 22.5875 15.2497C22.4092 15.2497 22.225 15.1962 22.0348 15.0892C21.8446 14.9822 21.6723 14.8515 21.5178 14.697C21.3633 14.5366 21.2355 14.3672 21.1345 14.1889C21.0335 14.0106 20.983 13.8532 20.983 13.7165C20.983 13.2649 21.0454 12.8162 21.1702 12.3705C21.289 11.9248 21.4792 11.5089 21.7407 11.1226C21.9962 10.7304 22.323 10.3857 22.7212 10.0886C23.1253 9.79147 23.6036 9.56565 24.1563 9.41115C24.1741 9.39926 24.2038 9.39035 24.2454 9.3844C24.293 9.37846 24.3316 9.37549 24.3613 9.37549C24.4445 9.37549 24.5307 9.40817 24.6198 9.47354C24.7149 9.53297 24.801 9.60131 24.8783 9.67856C24.9615 9.75581 25.0298 9.83306 25.0833 9.91032C25.1368 9.98163 25.1635 10.0292 25.1635 10.0529C25.1516 10.0826 25.1071 10.1213 25.0298 10.1688C24.9526 10.2104 24.8486 10.2847 24.7178 10.3917C24.5871 10.4986 24.4326 10.6531 24.2543 10.8552C24.0761 11.0513 23.88 11.3127 23.666 11.6396C23.3451 12.1209 23.1282 12.5577 23.0153 12.9499C22.9024 13.3362 22.846 13.6363 22.846 13.8502Z" fill="#111212"/>
<path d="M32.0806 15.2497C31.9974 15.2497 31.8845 15.2199 31.7419 15.1605C31.6052 15.1011 31.4626 15.0209 31.314 14.9198C31.1714 14.8248 31.0347 14.7148 30.904 14.59C30.7733 14.4593 30.6812 14.3226 30.6277 14.18C30.3187 14.4712 30.0096 14.7178 29.7006 14.9198C29.3916 15.1219 29.1034 15.2318 28.836 15.2497C28.7469 15.2497 28.6161 15.211 28.4438 15.1338C28.2774 15.0565 28.114 14.9555 27.9535 14.8307C27.7871 14.7119 27.6445 14.5752 27.5257 14.4207C27.4009 14.2602 27.3385 14.0998 27.3385 13.9393C27.3385 13.5471 27.3831 13.146 27.4722 12.736C27.5554 12.32 27.6624 11.907 27.7931 11.497C27.9179 11.0869 28.0546 10.6888 28.2031 10.3025C28.3517 9.91032 28.4884 9.53891 28.6132 9.1883C28.9162 9.32498 29.2134 9.47948 29.5045 9.65182C29.7957 9.81821 30.0661 10.0113 30.3157 10.2312C30.2265 10.4095 30.1344 10.6204 30.0394 10.8641C29.9443 11.1077 29.8522 11.3603 29.763 11.6218C29.6739 11.8832 29.5877 12.1477 29.5045 12.4151C29.4273 12.6825 29.3589 12.9291 29.2995 13.1549C29.2401 13.3807 29.1926 13.5798 29.1569 13.7521C29.1212 13.9245 29.1034 14.0463 29.1034 14.1176C29.1034 14.1651 29.1123 14.2097 29.1302 14.2513C29.1539 14.287 29.1896 14.3048 29.2371 14.3048C29.3263 14.3048 29.4243 14.2721 29.5313 14.2067C29.6442 14.1414 29.7601 14.0552 29.8789 13.9482C30.0037 13.8413 30.1285 13.7195 30.2533 13.5828C30.384 13.4402 30.5118 13.2916 30.6366 13.1371C30.6782 12.8221 30.7406 12.5102 30.8238 12.2012C30.907 11.8921 30.9991 11.5861 31.1001 11.283C31.2011 10.98 31.3081 10.6828 31.421 10.3917C31.5339 10.0945 31.6438 9.80335 31.7508 9.51811C32.0539 9.65479 32.351 9.80929 32.6422 9.98163C32.9334 10.148 33.2037 10.3411 33.4533 10.561C33.3642 10.7393 33.2751 10.9413 33.1859 11.1672C33.0968 11.393 33.0106 11.6277 32.9274 11.8713C32.8502 12.109 32.7759 12.3467 32.7046 12.5844C32.6333 12.8162 32.5709 13.0361 32.5174 13.2441C32.4698 13.4461 32.4312 13.6244 32.4015 13.7789C32.3718 13.9334 32.3569 14.0463 32.3569 14.1176C32.3569 14.1651 32.3659 14.2097 32.3837 14.2513C32.4015 14.287 32.4342 14.3048 32.4817 14.3048C32.5768 14.3048 32.6867 14.2721 32.8115 14.2067C32.9363 14.1354 33.0641 14.0433 33.1948 13.9304C33.3315 13.8116 33.4682 13.6749 33.6049 13.5204C33.7415 13.3659 33.8752 13.2054 34.006 13.039C33.9525 12.8548 33.9258 12.6439 33.9258 12.4062C33.9258 12.216 33.9584 11.9872 34.0238 11.7198C34.0892 11.4465 34.1724 11.1761 34.2734 10.9087C34.3744 10.6412 34.4844 10.3946 34.6032 10.1688C34.728 9.93706 34.8439 9.76472 34.9508 9.65182C35.0875 9.69936 35.2272 9.77067 35.3698 9.86575C35.5183 9.95488 35.655 10.0529 35.7798 10.1599C35.9046 10.2609 36.0056 10.3619 36.0829 10.463C36.1661 10.564 36.2136 10.6442 36.2255 10.7036C36.2255 10.8344 36.1928 10.9919 36.1275 11.1761C36.0621 11.3603 35.97 11.5594 35.8511 11.7733C35.7382 11.9872 35.6015 12.2101 35.4411 12.4418C35.2866 12.6736 35.1172 12.9053 34.933 13.1371C35.04 13.2678 35.2212 13.3332 35.4768 13.3332C35.7739 13.3332 36.071 13.2292 36.3681 13.0212C36.6653 12.8073 37.0069 12.522 37.3932 12.1655C37.4526 12.219 37.5239 12.2903 37.6071 12.3794C37.6903 12.4626 37.7587 12.5369 37.8122 12.6023C37.313 13.0955 36.8643 13.455 36.4662 13.6808C36.074 13.9007 35.6907 14.0106 35.3163 14.0106C34.9598 14.0106 34.6656 13.9126 34.4338 13.7165C34.2377 13.9245 34.0357 14.1206 33.8277 14.3048C33.6257 14.4831 33.4236 14.6405 33.2216 14.7772C33.0195 14.9139 32.8205 15.0238 32.6243 15.107C32.4342 15.1902 32.2529 15.2378 32.0806 15.2497Z" fill="#111212"/>
<path d="M43.5883 12.5666C43.0416 13.1014 42.5246 13.5501 42.0373 13.9126C41.5559 14.2751 41.0954 14.5663 40.6556 14.7861C40.2159 15.006 39.794 15.1635 39.3899 15.2586C38.9917 15.3537 38.6025 15.4012 38.2222 15.4012C38.0617 15.4012 37.8835 15.3418 37.6874 15.2229C37.4913 15.1041 37.31 14.9585 37.1436 14.7861C36.9713 14.6198 36.8287 14.4444 36.7158 14.2602C36.6029 14.076 36.5464 13.9185 36.5464 13.7878C36.5464 13.3005 36.6147 12.8548 36.7514 12.4507C36.8822 12.0407 37.0575 11.6723 37.2773 11.3454C37.4972 11.0186 37.7468 10.7304 38.0261 10.4808C38.3113 10.2312 38.6055 10.0232 38.9085 9.85683C39.2176 9.69044 39.5236 9.56565 39.8267 9.48246C40.1297 9.39926 40.409 9.35766 40.6646 9.35766C40.8488 9.35766 41.03 9.41115 41.2083 9.51811C41.3925 9.62508 41.5589 9.75581 41.7075 9.91032C41.856 10.0648 41.9749 10.2282 42.064 10.4006C42.1591 10.567 42.2066 10.7126 42.2066 10.8373C42.2066 11.0394 42.1205 11.2474 41.9481 11.4613C41.7817 11.6693 41.5441 11.8832 41.235 12.1031C40.926 12.323 40.5546 12.5488 40.1208 12.7805C39.687 13.0064 39.2086 13.2351 38.6857 13.4669C38.6679 13.6095 38.659 13.7492 38.659 13.8859C38.659 14.0701 38.6976 14.1949 38.7748 14.2602C38.858 14.3256 39.0096 14.3583 39.2294 14.3583C39.6216 14.3583 39.9901 14.2929 40.3347 14.1622C40.6854 14.0314 41.0211 13.8621 41.342 13.6541C41.6629 13.4461 41.9719 13.2084 42.269 12.941C42.5662 12.6736 42.8603 12.4032 43.1515 12.1298L43.5883 12.5666ZM40.4506 10.3382C40.3318 10.3382 40.201 10.4035 40.0584 10.5343C39.9158 10.6591 39.7732 10.8255 39.6306 11.0334C39.4879 11.2414 39.3513 11.4821 39.2205 11.7555C39.0898 12.0229 38.9769 12.3022 38.8818 12.5934C39.1017 12.4507 39.3156 12.2992 39.5236 12.1388C39.7375 11.9783 39.9277 11.8119 40.0941 11.6396C40.2605 11.4613 40.3942 11.2801 40.4952 11.0958C40.5962 10.9116 40.6467 10.7274 40.6467 10.5432C40.6467 10.4897 40.6289 10.4422 40.5932 10.4006C40.5635 10.359 40.516 10.3382 40.4506 10.3382Z" fill="#111212"/>
<path d="M45.0412 14.1354C45.1363 14.1354 45.2641 14.0938 45.4245 14.0106C45.5909 13.9274 45.7721 13.8235 45.9682 13.6987C46.1643 13.5679 46.3694 13.4253 46.5833 13.2708C46.7972 13.1163 46.9963 12.9648 47.1805 12.8162C47.3707 12.6676 47.54 12.531 47.6886 12.4062C47.8372 12.2814 47.9471 12.1893 48.0184 12.1298C48.0719 12.1833 48.1343 12.2517 48.2056 12.3349C48.2828 12.4181 48.3542 12.4953 48.4195 12.5666C48.2888 12.6974 48.1254 12.8578 47.9293 13.048C47.7332 13.2322 47.5192 13.4223 47.2875 13.6184C47.0617 13.8145 46.824 14.0106 46.5744 14.2067C46.3307 14.4028 46.0901 14.5782 45.8524 14.7327C45.6206 14.8872 45.4037 15.012 45.2017 15.107C44.9996 15.2021 44.8303 15.2497 44.6936 15.2497C44.5094 15.2497 44.3133 15.1843 44.1053 15.0536C43.9032 14.9228 43.7131 14.7713 43.5348 14.599C43.3565 14.4207 43.205 14.2424 43.0802 14.0641C42.9554 13.8859 42.8841 13.7521 42.8663 13.663C42.8544 13.6274 42.8484 13.5858 42.8484 13.5382C42.8484 13.4847 42.8484 13.4283 42.8484 13.3689C42.8484 13.0717 42.8871 12.6974 42.9643 12.2457C43.0356 11.7881 43.1337 11.3068 43.2585 10.8017C43.3833 10.2906 43.5259 9.78552 43.6863 9.28635C43.8527 8.78124 44.025 8.33555 44.2033 7.94929C44.5658 7.15894 44.9372 6.45772 45.3175 5.84564C45.7038 5.23356 46.0812 4.70171 46.4496 4.25008C46.818 3.79251 47.1716 3.40921 47.5103 3.1002C47.849 2.79119 48.1521 2.54161 48.4195 2.35145C48.6929 2.16129 48.9217 2.02461 49.1059 1.94142C49.296 1.85822 49.4268 1.81662 49.4981 1.81662C49.611 1.85822 49.7239 1.92062 49.8368 2.00381C49.9557 2.08106 50.0656 2.16426 50.1666 2.2534C50.2676 2.34253 50.3568 2.43167 50.434 2.52081C50.5113 2.604 50.5677 2.6664 50.6034 2.708C50.6509 2.75554 50.6806 2.80308 50.6925 2.85062C50.7104 2.89222 50.7193 2.94867 50.7193 3.01998C50.7193 3.1626 50.6836 3.3587 50.6123 3.60829C50.541 3.85787 50.4073 4.1758 50.2112 4.56206C50.0151 4.94238 49.7417 5.39995 49.3911 5.93478C49.0465 6.4696 48.5948 7.09357 48.0362 7.80667C47.7748 8.13945 47.4984 8.47817 47.2073 8.82284C46.9577 9.11996 46.6695 9.44383 46.3426 9.79444C46.0158 10.145 45.68 10.4808 45.3354 10.8017C45.163 11.4554 45.0412 12.0318 44.9699 12.531C44.9045 13.0301 44.8718 13.4194 44.8718 13.6987C44.8718 13.8829 44.8867 14.0017 44.9164 14.0552C44.9461 14.1087 44.9877 14.1354 45.0412 14.1354ZM46.4674 7.60165C46.3664 7.82747 46.2713 8.04734 46.1822 8.26127C46.099 8.4752 46.0188 8.68616 45.9415 8.89415C46.1257 8.68616 46.2921 8.48709 46.4407 8.29693C46.5952 8.10677 46.7259 7.94335 46.8329 7.80667C46.9577 7.64622 47.0706 7.49469 47.1716 7.35207C47.5876 6.7697 47.9471 6.23488 48.2502 5.74759C48.5532 5.2603 48.8028 4.83244 48.9989 4.46401C49.195 4.08963 49.3376 3.78062 49.4268 3.53698C49.5219 3.28739 49.5694 3.10912 49.5694 3.00215C49.5694 2.97244 49.5664 2.95164 49.5605 2.93976C49.5605 2.92193 49.5456 2.91302 49.5159 2.91302C49.4624 2.91302 49.3406 3.00215 49.1505 3.18043C48.9603 3.35276 48.7256 3.62909 48.4463 4.00941C48.1729 4.38973 47.8639 4.87701 47.5192 5.47126C47.1805 6.05957 46.8299 6.7697 46.4674 7.60165Z" fill="#111212"/>
<path d="M49.0881 13.8502C49.0881 14.0285 49.1534 14.1176 49.2842 14.1176C49.4208 14.1176 49.6021 14.0106 49.8279 13.7967C50.0537 13.5768 50.2884 13.3005 50.5321 12.9677C50.5202 12.9024 50.5113 12.8459 50.5053 12.7984C50.5053 12.7449 50.5053 12.6974 50.5053 12.6558C50.5053 12.5369 50.5172 12.3973 50.541 12.2368C50.5707 12.0704 50.6391 11.8832 50.746 11.6752C50.8173 11.5148 50.9035 11.3573 51.0045 11.2028C51.0877 11.0661 51.1887 10.9205 51.3076 10.766C51.4264 10.6056 51.5572 10.457 51.6998 10.3203L51.7533 10.2669C51.8127 10.3382 51.8899 10.4362 51.985 10.561C52.0861 10.6799 52.1841 10.8047 52.2792 10.9354C52.3802 11.0602 52.4664 11.1761 52.5377 11.283C52.6149 11.39 52.6625 11.4643 52.6803 11.5059C52.6803 11.7614 52.6328 12.0169 52.5377 12.2725C52.4485 12.528 52.3267 12.7805 52.1722 13.0301C52.5288 13.0064 52.8586 12.9172 53.1616 12.7627C53.4707 12.6023 53.7915 12.3438 54.1243 11.9872C54.1778 12.0407 54.2462 12.115 54.3293 12.2101C54.4185 12.2992 54.4898 12.3765 54.5433 12.4418C54.2937 12.7033 54.0471 12.9202 53.8034 13.0925C53.5657 13.2649 53.3251 13.4015 53.0814 13.5026C52.8437 13.6036 52.6001 13.6779 52.3505 13.7254C52.1009 13.767 51.8454 13.7878 51.5839 13.7878C51.3819 14.0017 51.165 14.1978 50.9332 14.3761C50.7014 14.5544 50.4637 14.7089 50.2201 14.8396C49.9824 14.9704 49.7447 15.0714 49.507 15.1427C49.2693 15.214 49.0435 15.2497 48.8296 15.2497C48.6513 15.2497 48.4671 15.1962 48.2769 15.0892C48.0868 14.9822 47.9144 14.8515 47.7599 14.697C47.6054 14.5366 47.4776 14.3672 47.3766 14.1889C47.2756 14.0106 47.2251 13.8532 47.2251 13.7165C47.2251 13.2649 47.2875 12.8162 47.4123 12.3705C47.5311 11.9248 47.7213 11.5089 47.9828 11.1226C48.2383 10.7304 48.5651 10.3857 48.9633 10.0886C49.3674 9.79147 49.8457 9.56565 50.3984 9.41115C50.4162 9.39926 50.4459 9.39035 50.4875 9.3844C50.5351 9.37846 50.5737 9.37549 50.6034 9.37549C50.6866 9.37549 50.7728 9.40817 50.8619 9.47354C50.957 9.53297 51.0431 9.60131 51.1204 9.67856C51.2036 9.75581 51.2719 9.83306 51.3254 9.91032C51.3789 9.98163 51.4056 10.0292 51.4056 10.0529C51.3938 10.0826 51.3492 10.1213 51.2719 10.1688C51.1947 10.2104 51.0907 10.2847 50.9599 10.3917C50.8292 10.4986 50.6747 10.6531 50.4964 10.8552C50.3182 11.0513 50.1221 11.3127 49.9081 11.6396C49.5872 12.1209 49.3703 12.5577 49.2574 12.9499C49.1445 13.3362 49.0881 13.6363 49.0881 13.8502Z" fill="#111212"/>
<path d="M58.3227 15.2497C58.2395 15.2497 58.1266 15.2199 57.984 15.1605C57.8473 15.1011 57.7047 15.0209 57.5561 14.9198C57.4135 14.8248 57.2768 14.7148 57.1461 14.59C57.0154 14.4593 56.9233 14.3226 56.8698 14.18C56.5608 14.4712 56.2518 14.7178 55.9427 14.9198C55.6337 15.1219 55.3455 15.2318 55.0781 15.2497C54.989 15.2497 54.8582 15.211 54.6859 15.1338C54.5195 15.0565 54.3561 14.9555 54.1956 14.8307C54.0293 14.7119 53.8866 14.5752 53.7678 14.4207C53.643 14.2602 53.5806 14.0998 53.5806 13.9393C53.5806 13.5471 53.6252 13.146 53.7143 12.736C53.7975 12.32 53.9045 11.907 54.0352 11.497C54.16 11.0869 54.2967 10.6888 54.4452 10.3025C54.5938 9.91032 54.7305 9.53891 54.8553 9.1883C55.1583 9.32498 55.4555 9.47948 55.7466 9.65182C56.0378 9.81821 56.3082 10.0113 56.5578 10.2312C56.4687 10.4095 56.3765 10.6204 56.2815 10.8641C56.1864 11.1077 56.0943 11.3603 56.0051 11.6218C55.916 11.8832 55.8298 12.1477 55.7466 12.4151C55.6694 12.6825 55.601 12.9291 55.5416 13.1549C55.4822 13.3807 55.4347 13.5798 55.399 13.7521C55.3633 13.9245 55.3455 14.0463 55.3455 14.1176C55.3455 14.1651 55.3544 14.2097 55.3723 14.2513C55.396 14.287 55.4317 14.3048 55.4792 14.3048C55.5684 14.3048 55.6664 14.2721 55.7734 14.2067C55.8863 14.1414 56.0022 14.0552 56.121 13.9482C56.2458 13.8413 56.3706 13.7195 56.4954 13.5828C56.6261 13.4402 56.7539 13.2916 56.8787 13.1371C56.9203 12.8221 56.9827 12.5102 57.0659 12.2012C57.1491 11.8921 57.2412 11.5861 57.3422 11.283C57.4432 10.98 57.5502 10.6828 57.6631 10.3917C57.776 10.0945 57.8859 9.80335 57.9929 9.51811C58.296 9.65479 58.5931 9.80929 58.8843 9.98163C59.1755 10.148 59.4458 10.3411 59.6954 10.561C59.6063 10.7393 59.5172 10.9413 59.428 11.1672C59.3389 11.393 59.2527 11.6277 59.1695 11.8713C59.0923 12.109 59.018 12.3467 58.9467 12.5844C58.8754 12.8162 58.813 13.0361 58.7595 13.2441C58.7119 13.4461 58.6733 13.6244 58.6436 13.7789C58.6139 13.9334 58.599 14.0463 58.599 14.1176C58.599 14.1651 58.608 14.2097 58.6258 14.2513C58.6436 14.287 58.6763 14.3048 58.7238 14.3048C58.8189 14.3048 58.9288 14.2721 59.0536 14.2067C59.1784 14.1354 59.3062 14.0433 59.4369 13.9304C59.5736 13.8116 59.7103 13.6749 59.847 13.5204C59.9836 13.3659 60.1173 13.2054 60.2481 13.039C60.1946 12.8548 60.1679 12.6439 60.1679 12.4062C60.1679 12.216 60.2005 11.9872 60.2659 11.7198C60.3313 11.4465 60.4145 11.1761 60.5155 10.9087C60.6165 10.6412 60.7265 10.3946 60.8453 10.1688C60.9701 9.93706 61.086 9.76472 61.1929 9.65182C61.3296 9.69936 61.4693 9.77067 61.6119 9.86575C61.7605 9.95488 61.8971 10.0529 62.0219 10.1599C62.1467 10.2609 62.2477 10.3619 62.325 10.463C62.4082 10.564 62.4557 10.6442 62.4676 10.7036C62.4676 10.8344 62.4349 10.9919 62.3696 11.1761C62.3042 11.3603 62.2121 11.5594 62.0932 11.7733C61.9803 11.9872 61.8436 12.2101 61.6832 12.4418C61.5287 12.6736 61.3593 12.9053 61.1751 13.1371C61.2821 13.2678 61.4633 13.3332 61.7189 13.3332C62.016 13.3332 62.3131 13.2292 62.6102 13.0212C62.9074 12.8073 63.249 12.522 63.6353 12.1655C63.6947 12.219 63.766 12.2903 63.8492 12.3794C63.9324 12.4626 64.0008 12.5369 64.0543 12.6023C63.5551 13.0955 63.1064 13.455 62.7083 13.6808C62.3161 13.9007 61.9328 14.0106 61.5584 14.0106C61.2019 14.0106 60.9077 13.9126 60.6759 13.7165C60.4798 13.9245 60.2778 14.1206 60.0698 14.3048C59.8678 14.4831 59.6657 14.6405 59.4637 14.7772C59.2616 14.9139 59.0626 15.0238 58.8665 15.107C58.6763 15.1902 58.495 15.2378 58.3227 15.2497Z" fill="#111212"/>
<path d="M69.8304 12.5666C69.2837 13.1014 68.7667 13.5501 68.2794 13.9126C67.798 14.2751 67.3375 14.5663 66.8977 14.7861C66.458 15.006 66.0361 15.1635 65.632 15.2586C65.2338 15.3537 64.8446 15.4012 64.4643 15.4012C64.3038 15.4012 64.1256 15.3418 63.9295 15.2229C63.7334 15.1041 63.5521 14.9585 63.3857 14.7861C63.2134 14.6198 63.0708 14.4444 62.9579 14.2602C62.845 14.076 62.7885 13.9185 62.7885 13.7878C62.7885 13.3005 62.8568 12.8548 62.9935 12.4507C63.1243 12.0407 63.2996 11.6723 63.5194 11.3454C63.7393 11.0186 63.9889 10.7304 64.2682 10.4808C64.5534 10.2312 64.8476 10.0232 65.1507 9.85683C65.4597 9.69044 65.7657 9.56565 66.0688 9.48246C66.3718 9.39926 66.6511 9.35766 66.9067 9.35766C67.0909 9.35766 67.2721 9.41115 67.4504 9.51811C67.6346 9.62508 67.801 9.75581 67.9496 9.91032C68.0981 10.0648 68.217 10.2282 68.3061 10.4006C68.4012 10.567 68.4487 10.7126 68.4487 10.8373C68.4487 11.0394 68.3626 11.2474 68.1902 11.4613C68.0238 11.6693 67.7861 11.8832 67.4771 12.1031C67.1681 12.323 66.7967 12.5488 66.3629 12.7805C65.9291 13.0064 65.4507 13.2351 64.9278 13.4669C64.91 13.6095 64.9011 13.7492 64.9011 13.8859C64.9011 14.0701 64.9397 14.1949 65.0169 14.2602C65.1001 14.3256 65.2517 14.3583 65.4715 14.3583C65.8637 14.3583 66.2322 14.2929 66.5769 14.1622C66.9275 14.0314 67.2632 13.8621 67.5841 13.6541C67.905 13.4461 68.214 13.2084 68.5111 12.941C68.8083 12.6736 69.1024 12.4032 69.3936 12.1298L69.8304 12.5666ZM66.6927 10.3382C66.5739 10.3382 66.4431 10.4035 66.3005 10.5343C66.1579 10.6591 66.0153 10.8255 65.8727 11.0334C65.73 11.2414 65.5934 11.4821 65.4626 11.7555C65.3319 12.0229 65.219 12.3022 65.1239 12.5934C65.3438 12.4507 65.5577 12.2992 65.7657 12.1388C65.9796 11.9783 66.1698 11.8119 66.3362 11.6396C66.5026 11.4613 66.6363 11.2801 66.7373 11.0958C66.8383 10.9116 66.8888 10.7274 66.8888 10.5432C66.8888 10.4897 66.871 10.4422 66.8354 10.4006C66.8056 10.359 66.7581 10.3382 66.6927 10.3382Z" fill="#111212"/>
</svg>
